<?xml version="1.0" encoding="utf-8"?>
<!-- Generator: Adobe Illustrator 22.0.0, SVG Export Plug-In . SVG Version: 6.00 Build 0)  -->
<svg version="1.1" id="Layer_1" xmlns="http://www.w3.org/2000/svg" xmlns:xlink="http://www.w3.org/1999/xlink" x="0px" y="0px"
	 viewBox="0 0 200.8 55" style="enable-background:new 0 0 200.8 55;" xml:space="preserve">
<style type="text/css">
	.Drop_x0020_Shadow{fill:none;}
	.Outer_x0020_Glow_x0020_5_x0020_pt{fill:none;}
	.Blue_x0020_Neon{fill:none;stroke:#8AACDA;stroke-width:7;stroke-linecap:round;stroke-linejoin:round;}
	.Chrome_x0020_Highlight{fill:url(#SVGID_1_);stroke:#FFFFFF;stroke-width:0.3629;stroke-miterlimit:1;}
	.Jive_GS{fill:#FFDD00;}
	.Alyssa_GS{fill:#A6D0E4;}
	.st0{fill:#2F1B5D;}
	.st1{clip-path:url(#SVGID_3_);fill:url(#SVGID_4_);}
	.st2{clip-path:url(#SVGID_6_);fill:url(#SVGID_7_);}
</style>
<linearGradient id="SVGID_1_" gradientUnits="userSpaceOnUse" x1="-972.182" y1="-1051.9409" x2="-972.182" y2="-1052.9409">
	<stop  offset="0" style="stop-color:#656565"/>
	<stop  offset="0.618" style="stop-color:#1B1B1B"/>
	<stop  offset="0.6292" style="stop-color:#545454"/>
	<stop  offset="0.9831" style="stop-color:#3E3E3E"/>
</linearGradient>
<g>
	<path class="st0" d="M58.1,54.4l2.1-12l3.1,0c1,0,1.8,0.2,2.5,0.7c0.7,0.5,1.2,1.2,1.5,2c0.3,0.9,0.4,1.8,0.3,2.9l-0.1,0.6
		c-0.2,1.7-0.9,3.1-2,4.2c-1.1,1-2.5,1.6-4.2,1.6H58.1z M61.5,43.7l-1.6,9.4l1.5,0c1.2,0,2.1-0.4,3-1.1c0.8-0.7,1.3-1.7,1.6-3
		c0.2-1,0.3-1.9,0.2-2.6c-0.1-0.9-0.4-1.5-0.8-2s-1.1-0.7-1.9-0.8L61.5,43.7z"/>
	<polygon class="st0" points="70.6,54.4 69,54.4 71.1,42.4 72.7,42.4 	"/>
	<path class="st0" d="M82.4,52.8c-0.4,0.6-1,1-1.8,1.3c-0.8,0.3-1.6,0.5-2.6,0.4c-0.8,0-1.5-0.2-2.1-0.6c-0.6-0.4-1-0.9-1.4-1.5
		c-0.3-0.7-0.5-1.4-0.6-2.2c0-0.7,0-1.5,0.2-2.7c0.2-1.1,0.6-2.1,1.1-2.9c0.5-0.8,1.1-1.4,1.9-1.9c0.7-0.4,1.6-0.6,2.6-0.6
		c1.1,0,2,0.4,2.7,1c0.7,0.6,1,1.5,1.1,2.7H82c-0.1-0.8-0.3-1.3-0.7-1.8c-0.4-0.4-0.9-0.6-1.6-0.6c-1,0-1.9,0.3-2.6,1.1
		c-0.7,0.8-1.2,1.9-1.4,3.4l-0.2,1.2l0,0.6c0,1.1,0.2,1.9,0.7,2.5c0.4,0.6,1.1,0.9,1.9,0.9c1.2,0,2.1-0.3,2.8-0.9l0.5-2.7h-2.7
		l0.2-1.3h4.2L82.4,52.8z"/>
	<polygon class="st0" points="86.3,54.4 84.8,54.4 86.9,42.4 88.4,42.4 	"/>
	<polygon class="st0" points="98.9,43.7 95.1,43.7 93.3,54.4 91.7,54.4 93.6,43.7 89.9,43.7 90.1,42.4 99.1,42.4 	"/>
	<path class="st0" d="M105.2,51.2h-4.9l-1.6,3.1H97l6.5-12h1.4l2.4,12h-1.5L105.2,51.2z M101,49.9h3.9l-1-5.6L101,49.9z"/>
	<polygon class="st0" points="110.7,53.1 116.2,53.1 116,54.4 108.9,54.4 111,42.4 112.5,42.4 	"/>
	<path class="st0" d="M128.9,51.2h-4.9l-1.6,3.1h-1.7l6.5-12h1.4l2.4,12h-1.5L128.9,51.2z M124.8,49.9h3.9l-1-5.6L124.8,49.9z"/>
	<path class="st0" d="M141.6,52.8c-0.4,0.6-1,1-1.8,1.3c-0.8,0.3-1.6,0.5-2.6,0.4c-0.8,0-1.5-0.2-2.1-0.6c-0.6-0.4-1-0.9-1.4-1.5
		c-0.3-0.7-0.5-1.4-0.6-2.2c0-0.7,0-1.5,0.2-2.7c0.2-1.1,0.6-2.1,1.1-2.9c0.5-0.8,1.1-1.4,1.9-1.9c0.7-0.4,1.6-0.6,2.6-0.6
		c1.1,0,2,0.4,2.7,1c0.7,0.6,1,1.5,1.1,2.7h-1.5c-0.1-0.8-0.3-1.3-0.7-1.8c-0.4-0.4-0.9-0.6-1.6-0.6c-1,0-1.9,0.3-2.6,1.1
		c-0.7,0.8-1.2,1.9-1.4,3.4l-0.2,1.2l0,0.6c0,1.1,0.2,1.9,0.7,2.5c0.4,0.6,1.1,0.9,1.9,0.9c1.2,0,2.1-0.3,2.8-0.9l0.5-2.7h-2.7
		l0.2-1.3h4.2L141.6,52.8z"/>
	<polygon class="st0" points="151.4,48.8 146.3,48.8 145.6,53.1 151.4,53.1 151.2,54.4 143.8,54.4 145.9,42.4 153.2,42.4 153,43.7 
		147.2,43.7 146.5,47.5 151.6,47.5 	"/>
	<polygon class="st0" points="162.1,54.4 160.6,54.4 156.4,45.1 154.8,54.4 153.2,54.4 155.3,42.4 156.8,42.4 161.1,51.7 
		162.7,42.4 164.2,42.4 	"/>
	<path class="st0" d="M174.1,50.6c-0.2,1.2-0.8,2.2-1.7,2.9c-0.9,0.7-2,1.1-3.2,1c-0.7,0-1.4-0.2-1.9-0.5c-0.6-0.3-1-0.9-1.3-1.5
		c-0.3-0.7-0.5-1.4-0.5-2.2c0-0.5,0-0.9,0.1-1.3l0.1-1c0.3-1.8,0.9-3.2,1.9-4.3c1-1,2.2-1.5,3.7-1.5c1.1,0,2,0.4,2.7,1.1
		c0.7,0.7,1,1.7,1,2.9h-1.5c-0.1-1.7-0.7-2.6-2-2.7l-0.3,0c-1,0-1.9,0.4-2.6,1.2c-0.7,0.8-1.1,1.9-1.3,3.3l-0.2,1.2l0,0.7
		c0,1,0.1,1.8,0.5,2.4c0.4,0.6,1,0.9,1.8,0.9c0.8,0,1.5-0.2,2.1-0.6c0.5-0.4,1-1.1,1.2-2.1L174.1,50.6z"/>
	<polygon class="st0" points="180.2,48.4 184.3,42.4 186.1,42.4 180.8,50 180,54.4 178.4,54.4 179.2,49.8 176.6,42.4 178.2,42.4 	
		"/>
	<path class="st0" d="M70.6,12.1h9.2l-4,11.4h21.2l4-11.4h9.1l-5,14.8c-0.2,0.6-0.6,1.3-1.1,1.9c-0.5,0.6-1.1,1.2-1.8,1.7
		c-0.7,0.5-1.4,0.9-2.1,1.2c-0.7,0.3-1.4,0.4-2,0.4H63.7L70.6,12.1z M74.8,0h34.5c0.6,0,1.1,0.1,1.7,0.4c0.5,0.3,0.9,0.7,1.2,1.2
		c0.3,0.5,0.5,1,0.6,1.7c0.1,0.6,0,1.2-0.2,1.9l-1.2,3.4H71.8L74.8,0z"/>
	<path class="st0" d="M126.7,20l2.7-7.8h19.5c0.6,0,1.1,0.1,1.7,0.4c0.5,0.3,0.9,0.7,1.2,1.2c0.3,0.5,0.5,1,0.6,1.7
		c0.1,0.6,0,1.2-0.2,1.9l-3.3,9.6c-0.2,0.6-0.6,1.3-1.1,1.9c-0.5,0.6-1.1,1.2-1.8,1.7c-0.7,0.5-1.4,0.9-2.1,1.2
		c-0.7,0.3-1.4,0.4-2,0.4h-29.5c-0.6,0-1.1-0.1-1.7-0.4c-0.5-0.3-0.9-0.7-1.2-1.2c-0.3-0.5-0.5-1-0.6-1.7c-0.1-0.6,0-1.2,0.2-1.9
		l5-14.8h9.2l-4,11.4h21.4l1.2-3.5H126.7z M116.6,5.2c0.2-0.6,0.6-1.3,1.1-1.9c0.5-0.6,1.1-1.2,1.8-1.7c0.7-0.5,1.3-0.9,2.1-1.2
		c0.7-0.3,1.4-0.4,2-0.4h34.6l-2.9,8.6h-39.8L116.6,5.2z"/>
	<path class="st0" d="M162.2,0h38.5l-2.9,8.6h-38.5L162.2,0z M165.9,32.1l6.9-20h9.2l-6.9,20H165.9z"/>
	<g>
		<defs>
			<path id="SVGID_2_" d="M20.6,21.5c-2.1,0-3.3,2.4-1.9,4.1l22.5,27.9c1.2,1.5,3.7,1.1,4.3-0.8l9.7-27.9c0.6-1.6-0.6-3.3-2.4-3.3
				H20.6z"/>
		</defs>
		<clipPath id="SVGID_3_">
			<use xlink:href="#SVGID_2_"  style="overflow:visible;"/>
		</clipPath>
		
			<linearGradient id="SVGID_4_" gradientUnits="userSpaceOnUse" x1="-551.7493" y1="850.9406" x2="-550.7493" y2="850.9406" gradientTransform="matrix(37.2225 0 0 -37.2225 20555.5469 31712.3711)">
			<stop  offset="0" style="stop-color:#4393CA"/>
			<stop  offset="1" style="stop-color:#2F1B5D"/>
		</linearGradient>
		<rect x="17.3" y="21.5" class="st1" width="38.4" height="33.5"/>
	</g>
	<g>
		<defs>
			<path id="SVGID_5_" d="M3.3,0.1c-2.1,0-3.3,2.4-2,4.1l8.2,10.1c0.5,0.6,1.2,0.9,1.9,0.9h45.2c1.1,0,2-0.7,2.4-1.7l3.5-10.1
				c0.6-1.6-0.6-3.3-2.4-3.3H3.3z"/>
		</defs>
		<clipPath id="SVGID_6_">
			<use xlink:href="#SVGID_5_"  style="overflow:visible;"/>
		</clipPath>
		
			<linearGradient id="SVGID_7_" gradientUnits="userSpaceOnUse" x1="-557.1086" y1="852.5886" x2="-556.1086" y2="852.5886" gradientTransform="matrix(61.9319 0 0 -61.9319 34503.5664 52810.1133)">
			<stop  offset="0" style="stop-color:#4393CA"/>
			<stop  offset="1" style="stop-color:#2F1B5D"/>
		</linearGradient>
		<rect y="0.1" class="st2" width="63.1" height="15.2"/>
	</g>
</g>
</svg>
