<?xml version="1.0" encoding="utf-8"?>
<!-- Generator: Adobe Illustrator 22.0.0, SVG Export Plug-In . SVG Version: 6.00 Build 0)  -->
<svg version="1.1" id="Layer_1" xmlns="http://www.w3.org/2000/svg" xmlns:xlink="http://www.w3.org/1999/xlink" x="0px" y="0px"
	 viewBox="0 0 28.1 28.1" style="enable-background:new 0 0 28.1 28.1;" xml:space="preserve">
<style type="text/css">
	.Drop_x0020_Shadow{fill:none;}
	.Thick_x0020_Blue_x0020_Neon{fill:none;stroke:#0073BC;stroke-width:10;stroke-linecap:round;stroke-linejoin:round;}
	.Illuminating_x0020_Aqua{fill:url(#SVGID_1_);stroke:#FFFFFF;stroke-width:0.25;stroke-miterlimit:1;}
	.Black_x0020_Highlight{fill:url(#SVGID_2_);stroke:#FFFFFF;stroke-width:0.3629;stroke-miterlimit:1;}
	.Bugaboo_GS{fill-rule:evenodd;clip-rule:evenodd;fill:#FFDD00;}
	.st0{fill:#2F1B5D;}
</style>
<linearGradient id="SVGID_1_" gradientUnits="userSpaceOnUse" x1="-194.0584" y1="-206.9814" x2="-194.0584" y2="-207.9814">
	<stop  offset="0" style="stop-color:#1D59F4"/>
	<stop  offset="0.618" style="stop-color:#2D65EE"/>
	<stop  offset="0.6292" style="stop-color:#3864F3"/>
	<stop  offset="0.9831" style="stop-color:#00DDFC"/>
</linearGradient>
<linearGradient id="SVGID_2_" gradientUnits="userSpaceOnUse" x1="-194.0584" y1="-206.9814" x2="-194.0584" y2="-207.9814">
	<stop  offset="0" style="stop-color:#060606"/>
	<stop  offset="0.618" style="stop-color:#000000"/>
	<stop  offset="0.6292" style="stop-color:#000000"/>
	<stop  offset="0.9831" style="stop-color:#000000"/>
</linearGradient>
<path class="st0" d="M4.6,0C11.1,0.1,17.5,0.2,24,0.4c0.1,0,0.1,0.1,0.2,0.1c0.8,0.1,1.4,0.5,2,0.9c1.2,1,1.9,2.2,1.8,3.8
	c-0.1,6.1-0.2,12.2-0.3,18.3c0,0.2,0,0.4,0,0.6c-0.2,1.2-0.8,2.2-1.7,3c-0.8,0.7-1.8,1.1-2.9,1.1c-1.6,0-3.2-0.1-4.8-0.1
	c0,0-0.1,0-0.1,0c0.1-3.5,0.1-7,0.2-10.5c1.5,0,3.1,0.1,4.6,0.1c0-1.6,0.1-3.1,0.1-4.6c-1.5,0-3.1-0.1-4.6-0.1c0-0.7,0-1.4,0-2.1
	c0-0.5,0.4-1,1.1-1c1.1,0.1,2.2,0.1,3.2,0.1c0.1,0,0.2,0,0.2,0c0-1.6,0.1-3.1,0.1-4.6c-1.4,0-2.7-0.1-4.1-0.1
	c-0.6,0-1.2,0.2-1.8,0.5C16.6,6,16,6.5,15.6,7.1c-0.8,0.9-1.3,2-1.4,3.1c-0.1,0.7-0.1,1.5-0.1,2.3c0,0.1,0,0.2,0,0.3
	c-1.1,0-2.3,0-3.4-0.1c0,0.1,0,0.1,0,0.1c0,1.5-0.1,2.9-0.1,4.4c0,0.2,0.1,0.2,0.2,0.2c1,0,2,0,2.9,0.1c0.1,0,0.2,0,0.3,0
	c-0.1,3.5-0.1,7-0.2,10.5c-0.1,0-0.1,0-0.1,0c-3-0.1-6.1-0.1-9.1-0.2c-0.7,0-1.4-0.2-2.1-0.6c-1.6-1-2.5-2.4-2.5-4.4
	c0.1-6,0.2-12,0.3-18c0-0.3,0-0.6,0.1-0.9C0.9,1.9,2.1,0.7,4,0.2C4.2,0.1,4.4,0.1,4.6,0"/>
</svg>
