<?xml version="1.0" encoding="utf-8"?>
<!-- Generator: Adobe Illustrator 22.0.0, SVG Export Plug-In . SVG Version: 6.00 Build 0)  -->
<svg version="1.1" id="Layer_1" xmlns="http://www.w3.org/2000/svg" xmlns:xlink="http://www.w3.org/1999/xlink" x="0px" y="0px"
	 viewBox="0 0 41.6 45" style="enable-background:new 0 0 41.6 45;" xml:space="preserve">
<style type="text/css">
	.Drop_x0020_Shadow{fill:none;}
	.Thick_x0020_Blue_x0020_Neon{fill:none;stroke:#0073BC;stroke-width:10;stroke-linecap:round;stroke-linejoin:round;}
	.Illuminating_x0020_Aqua{fill:url(#SVGID_1_);stroke:#FFFFFF;stroke-width:0.25;stroke-miterlimit:1;}
	.Black_x0020_Highlight{fill:url(#SVGID_2_);stroke:#FFFFFF;stroke-width:0.3629;stroke-miterlimit:1;}
	.Bugaboo_GS{fill-rule:evenodd;clip-rule:evenodd;fill:#FFDD00;}
	.st0{fill:#FFFFFF;}
</style>
<linearGradient id="SVGID_1_" gradientUnits="userSpaceOnUse" x1="-270.4472" y1="-554.9997" x2="-270.4472" y2="-555.9997">
	<stop  offset="0" style="stop-color:#1D59F4"/>
	<stop  offset="0.618" style="stop-color:#2D65EE"/>
	<stop  offset="0.6292" style="stop-color:#3864F3"/>
	<stop  offset="0.9831" style="stop-color:#00DDFC"/>
</linearGradient>
<linearGradient id="SVGID_2_" gradientUnits="userSpaceOnUse" x1="-270.4472" y1="-554.9997" x2="-270.4472" y2="-555.9997">
	<stop  offset="0" style="stop-color:#060606"/>
	<stop  offset="0.618" style="stop-color:#000000"/>
	<stop  offset="0.6292" style="stop-color:#000000"/>
	<stop  offset="0.9831" style="stop-color:#000000"/>
</linearGradient>
<path class="st0" d="M13.3,22.5h14.9c0.4,1,0.9,1.1,1.8,0.7c2.5-1.1,4.9-0.9,7,0.7c2.2,1.7,3,4,2.4,6.6c-0.6,2.6-2.3,4.3-4.9,5
	c-1,0.3-2,0.2-3.1,0c-0.3-0.1-0.5-0.2-0.7-0.6c-1.3-3.2-5.3-4.1-7.7-1.6c-0.5,0.5-0.8,1.3-1.2,2c-0.1,0.3-0.2,0.4-0.5,0.4
	c0,0-0.1,0-0.1,0c-1,0.2-1.6-0.1-2-1.2c-0.8-1.8-2.4-2.6-4.3-2.5C13,32,11.5,33.1,10.7,35c-0.1,0.3-0.2,0.4-0.5,0.5
	c-2.6,0.6-4.9-0.1-6.6-2.1c-1.7-2-2.1-4.4-1-6.9c1.1-2.5,3.1-3.8,5.7-3.9c1.1-0.1,2.2,0.2,3.2,0.7C12.5,23.7,13,23.5,13.3,22.5
	 M18.4,30.9c0.2,0,0.4,0,0.6,0c0.5,0,0.8-0.3,0.8-0.9c0-0.6-0.3-0.9-0.8-1c-0.3,0-0.7,0-1,0c-0.8,0-1,0.3-1,1c0,0.7,0.3,0.9,1,0.9
	C18.2,30.9,18.3,30.9,18.4,30.9 M10.9,30C10.9,30,10.9,30,10.9,30c0.2,0,0.4,0,0.6,0c0.5-0.1,0.9-0.5,0.8-1c0-0.5-0.4-0.9-0.9-0.9
	c-0.3,0-0.7,0-1,0c-0.5,0-0.8,0.4-0.9,0.8c0,0.5,0.2,0.9,0.7,1C10.5,30,10.7,30,10.9,30 M6.2,28.1L6.2,28.1c-0.1,0-0.3,0-0.4,0
	c-0.5,0-0.9,0.4-0.9,0.9c0,0.5,0.3,0.9,0.8,1c0.4,0,0.8,0,1.2,0c0.5-0.1,0.8-0.5,0.7-0.9c0-0.5-0.4-0.8-0.9-0.9
	C6.6,28.1,6.4,28.1,6.2,28.1 M9.5,26.7C9.5,26.7,9.5,26.7,9.5,26.7c0-0.2,0-0.3,0-0.5c-0.1-0.6-0.4-0.9-0.9-0.9
	c-0.5,0-0.9,0.4-0.9,0.9c0,0.4,0,0.7,0,1c0,0.5,0.4,0.8,0.9,0.8c0.4,0,0.8-0.3,0.9-0.8C9.5,27.2,9.5,26.9,9.5,26.7 M9.6,31.4
	L9.6,31.4c0-0.2,0-0.4,0-0.5c-0.1-0.5-0.4-0.9-1-0.9c-0.5,0-0.8,0.4-0.9,0.9c0,0.4,0,0.7,0,1.1c0,0.4,0.4,0.8,0.9,0.8
	c0.4,0,0.8-0.3,0.9-0.7C9.5,31.9,9.5,31.7,9.6,31.4 M21.7,30L21.7,30c0,0.1,0,0.2,0,0.3c0,0.5,0.1,0.6,0.6,0.5
	c0.6-0.1,1.2-0.3,1.7-0.4c0.1,0,0.3-0.2,0.4-0.3c-0.1-0.1-0.2-0.3-0.3-0.4c-0.6-0.2-1.3-0.3-1.9-0.5c-0.3-0.1-0.5,0.1-0.5,0.4
	C21.7,29.7,21.7,29.8,21.7,30 M30.2,30c0.5,0,0.9-0.4,0.9-0.9c0-0.5-0.4-1-0.9-1c-0.5,0-1,0.4-0.9,1C29.2,29.6,29.7,30,30.2,30
	 M33,30.9c-0.5,0-0.9,0.4-0.9,0.9c0,0.5,0.4,1,0.9,1c0.5,0,0.9-0.4,0.9-1C33.9,31.3,33.5,30.9,33,30.9 M33.9,26.3
	c0-0.5-0.4-0.9-0.9-0.9c-0.5,0-1,0.4-1,0.9c0,0.5,0.4,1,0.9,0.9C33.5,27.2,33.9,26.8,33.9,26.3 M36.7,29.1c0-0.5-0.4-0.9-0.9-0.9
	c-0.5,0-0.9,0.4-0.9,0.9c0,0.5,0.4,0.9,0.9,0.9C36.3,30,36.7,29.6,36.7,29.1"/>
<path class="st0" d="M1,32.9c2.2,3.7,5.3,5.1,9.6,4.4c0,0.4,0,0.7-0.1,1c-0.5,1.5-1.2,3-2.2,4.3c-1.5,1.7-3.4,2.4-5.6,2.4
	c-1,0-1.7-0.6-2.1-1.5c-0.5-1-0.6-2.1-0.6-3.1C0,37.9,0.4,35.4,1,32.9"/>
<path class="st0" d="M40.6,32.8c0.3,1.5,0.5,2.9,0.7,4.2c0.2,1.7,0.4,3.4,0,5.1c-0.1,0.4-0.2,0.9-0.4,1.3c-0.5,1.1-1.3,1.6-2.5,1.6
	c-2.6-0.1-4.6-1.2-5.9-3.4c-0.6-1.1-1.1-2.3-1.6-3.4c-0.1-0.2,0-0.5,0-0.8C35.2,38,38.4,36.5,40.6,32.8"/>
<path class="st0" d="M21.7,17.8H20c-0.6-2.8,1-4.8,3.4-4.7c0.5,0,1.1,0,1.6,0c0.8,0,1.4-0.6,1.4-1.4c0-0.8-0.6-1.4-1.4-1.4
	c-2.4,0-4.8,0-7.2,0c-2.2,0-3.6-1.4-3.6-3.6c0-1.9,0-3.7,0-5.6c0-0.7,0.3-1,0.8-1.1c0.6-0.1,1.1,0.3,1.1,1c0,1.9,0,3.8,0,5.7
	c0,1.2,0.5,1.7,1.7,1.7c2.4,0,4.8,0,7.3,0c1.7,0,3,1.3,3.2,2.9c0.2,1.6-0.9,3.2-2.5,3.5C25.1,15,24.3,15,23.5,15
	c-1.3,0-1.7,0.5-1.7,1.8C21.7,17.1,21.7,17.4,21.7,17.8"/>
<path class="st0" d="M26.4,39.4c-1.6,0-2.8-1.3-2.8-2.8c0-1.6,1.3-2.8,2.9-2.8c1.5,0,2.8,1.2,2.8,2.7C29.2,38.1,28,39.4,26.4,39.4"
	/>
<path class="st0" d="M15.2,39.4c-1.6,0-2.8-1.2-2.8-3c0-1.4,1.3-2.6,2.8-2.7c1.6,0,2.9,1.2,2.9,2.8C18,38.1,16.7,39.4,15.2,39.4"/>
<path class="st0" d="M6.8,20.8c0-0.1-0.1-0.1-0.1-0.1c-0.1-1,0-1.1,1-1.4c1.1-0.3,2.2-0.2,3.2,0.1c0.4,0.1,0.5,0.3,0.5,0.7
	c0,0.3,0,0.6,0,0.9C9.9,20.6,8.3,20.5,6.8,20.8"/>
<path class="st0" d="M30.2,21.1c0-0.4,0-0.8,0-1.2c0-0.1,0.2-0.3,0.3-0.4c1.4-0.6,2.7-0.5,4.1,0c0.1,0,0.2,0.2,0.3,0.4
	c0,0.2,0,0.3,0,0.5c0,0.1,0,0.2,0,0.4C33.3,20.5,31.7,20.6,30.2,21.1"/>
<rect x="18.9" y="19.7" class="st0" width="3.7" height="0.9"/>
</svg>
