<?xml version="1.0" encoding="utf-8"?>
<!-- Generator: Adobe Illustrator 22.0.0, SVG Export Plug-In . SVG Version: 6.00 Build 0)  -->
<svg version="1.1" id="Layer_1" xmlns="http://www.w3.org/2000/svg" xmlns:xlink="http://www.w3.org/1999/xlink" x="0px" y="0px"
	 viewBox="0 0 57.6 53.5" style="enable-background:new 0 0 57.6 53.5;" xml:space="preserve">
<style type="text/css">
	.Drop_x0020_Shadow{fill:none;}
	.Thick_x0020_Blue_x0020_Neon{fill:none;stroke:#0073BC;stroke-width:10;stroke-linecap:round;stroke-linejoin:round;}
	.Illuminating_x0020_Aqua{fill:url(#SVGID_1_);stroke:#FFFFFF;stroke-width:0.25;stroke-miterlimit:1;}
	.Black_x0020_Highlight{fill:url(#SVGID_2_);stroke:#FFFFFF;stroke-width:0.3629;stroke-miterlimit:1;}
	.Bugaboo_GS{fill-rule:evenodd;clip-rule:evenodd;fill:#FFDD00;}
	.st0{fill:#FFFFFF;}
</style>
<linearGradient id="SVGID_1_" gradientUnits="userSpaceOnUse" x1="-152.4632" y1="-150.5593" x2="-152.4632" y2="-151.5593">
	<stop  offset="0" style="stop-color:#1D59F4"/>
	<stop  offset="0.618" style="stop-color:#2D65EE"/>
	<stop  offset="0.6292" style="stop-color:#3864F3"/>
	<stop  offset="0.9831" style="stop-color:#00DDFC"/>
</linearGradient>
<linearGradient id="SVGID_2_" gradientUnits="userSpaceOnUse" x1="-152.4632" y1="-150.5593" x2="-152.4632" y2="-151.5593">
	<stop  offset="0" style="stop-color:#060606"/>
	<stop  offset="0.618" style="stop-color:#000000"/>
	<stop  offset="0.6292" style="stop-color:#000000"/>
	<stop  offset="0.9831" style="stop-color:#000000"/>
</linearGradient>
<path class="st0" d="M15,19.6c-1.2-0.1-1.3-0.2-1.3-1.3c0-0.9,0-1.7,0-2.6c0-1,0.2-1.2,1.3-1.2c0-0.6,0-1.2,0-1.7
	c0-1.4,0.7-2.3,2-2.6c0.5-0.1,0.4-0.4,0.5-0.7c1-4.7,3.8-7.7,8.4-9.1c6.4-1.8,13.1,2.4,14.3,9c0.1,0.4,0.2,0.7,0.7,0.8
	c1,0.2,1.7,1.2,1.8,2.3c0,0.6,0,1.3,0,1.9c1.2,0.1,1.3,0.2,1.3,1.4c0,0.8,0,1.6,0,2.4c0,1.1-0.1,1.2-1.3,1.4c0,0.3,0,0.7,0,1
	c0,1.5-1,2.5-2.4,2.6c-0.4,0-0.5,0.1-0.6,0.5c-0.9,2.4-2.1,4.6-3.9,6.5c-0.2,0.2-0.3,0.5-0.2,0.8c0.1,1.6,0.9,2.8,2,3.9
	c1.6,1.5,3.6,2.4,5.7,2.9c1.6,0.4,3.3,0.6,4.9,1.1c5.4,1.7,8.3,5.7,9.4,11.1c0.2,0.9,0.2,1.7,0.3,2.6c0,0.6-0.3,1-0.8,0.9
	c-0.6-0.1-0.7-0.4-0.7-1c-0.1-3.8-1.3-7.2-4.2-9.8c-1.9-1.7-4.1-2.4-6.5-2.9c-1.8-0.4-3.6-0.8-5.2-1.5c-3.1-1.2-5.5-3.2-6.3-6.7
	c-3.4,2.1-6.7,2.2-10.1,0c-0.8,3.6-3.3,5.5-6.4,6.8c-1.2,0.5-2.5,0.8-3.7,1.1c-1.7,0.5-3.5,0.7-5.1,1.4c-3.9,1.7-5.9,4.9-6.7,9
	c-0.2,0.9-0.2,1.7-0.3,2.6c0,0.5-0.3,0.9-0.8,0.9C0.3,53.4,0,53,0,52.5c-0.2-6.9,4.6-12.9,11.4-14.2c1.9-0.4,3.9-0.9,5.8-1.6
	c1.3-0.4,2.5-1.2,3.4-2.3c0.6-0.7,1-1.5,1.4-2.3c0.4-0.9,0.4-1.7-0.5-2.6c-1.6-1.6-2.6-3.6-3.4-5.7c-0.1-0.4-0.3-0.6-0.8-0.6
	c-1.3,0-2.3-1.1-2.4-2.4C15,20.4,15,20,15,19.6 M28.8,11.7c-3.6,0-7.3,0-10.9,0c-1,0-1.3,0.3-1.3,1.3c0,2.5,0,5,0,7.6
	c0,0.9,0.3,1.2,1.2,1.2c2.2,0,4.3,0,6.5,0c0.2,0,0.6-0.2,0.7-0.4c0.5-0.8,0.9-1.5,1.4-2.3c1.1-2,3.7-2,4.9-0.1
	c0.5,0.8,0.9,1.5,1.4,2.3c0.2,0.3,0.4,0.5,0.8,0.5c2.1,0,4.1,0,6.2,0c1,0,1.3-0.3,1.3-1.3c0-2.4,0-4.9,0-7.3c0-1.1-0.3-1.4-1.4-1.4
	C36,11.7,32.4,11.7,28.8,11.7 M19,10.1h19.7c-0.7-4.8-4.9-8.5-9.8-8.5C23.9,1.7,19.6,5.3,19,10.1 M19.7,23.3
	c1.1,2.8,2.5,5.1,4.9,6.9c2.8,2.1,5.9,2.1,8.7,0c2.1-1.6,3.5-3.7,4.5-6.1c0.1-0.3,0.2-0.5,0.3-0.9h-0.7c-1.6,0-3.1,0-4.7,0
	c-0.4,0-0.7-0.1-0.9-0.5c-0.5-1-1.1-1.9-1.7-2.9c-0.6-1.1-1.8-1.1-2.4,0c-0.5,0.9-1,1.7-1.5,2.6c-0.3,0.7-0.7,0.9-1.4,0.8
	C23.1,23.3,21.4,23.3,19.7,23.3"/>
</svg>
