<?xml version="1.0" encoding="utf-8"?>
<!-- Generator: Adobe Illustrator 22.0.0, SVG Export Plug-In . SVG Version: 6.00 Build 0)  -->
<svg version="1.1" id="Layer_1" xmlns="http://www.w3.org/2000/svg" xmlns:xlink="http://www.w3.org/1999/xlink" x="0px" y="0px"
	 viewBox="0 0 53.5 44.5" style="enable-background:new 0 0 53.5 44.5;" xml:space="preserve">
<style type="text/css">
	.Drop_x0020_Shadow{fill:none;}
	.Thick_x0020_Blue_x0020_Neon{fill:none;stroke:#0073BC;stroke-width:10;stroke-linecap:round;stroke-linejoin:round;}
	.Illuminating_x0020_Aqua{fill:url(#SVGID_1_);stroke:#FFFFFF;stroke-width:0.25;stroke-miterlimit:1;}
	.Black_x0020_Highlight{fill:url(#SVGID_2_);stroke:#FFFFFF;stroke-width:0.3629;stroke-miterlimit:1;}
	.Bugaboo_GS{fill-rule:evenodd;clip-rule:evenodd;fill:#FFDD00;}
	.st0{fill:#FFFFFF;}
</style>
<linearGradient id="SVGID_1_" gradientUnits="userSpaceOnUse" x1="-520.6098" y1="-866.6451" x2="-520.6098" y2="-867.6451">
	<stop  offset="0" style="stop-color:#1D59F4"/>
	<stop  offset="0.618" style="stop-color:#2D65EE"/>
	<stop  offset="0.6292" style="stop-color:#3864F3"/>
	<stop  offset="0.9831" style="stop-color:#00DDFC"/>
</linearGradient>
<linearGradient id="SVGID_2_" gradientUnits="userSpaceOnUse" x1="-520.6098" y1="-866.6451" x2="-520.6098" y2="-867.6451">
	<stop  offset="0" style="stop-color:#060606"/>
	<stop  offset="0.618" style="stop-color:#000000"/>
	<stop  offset="0.6292" style="stop-color:#000000"/>
	<stop  offset="0.9831" style="stop-color:#000000"/>
</linearGradient>
<path class="st0" d="M51.9,25.3v1H13.7v-0.8c0.2-0.3,0.4-0.4,0.5-0.7c0.8-1.8,2.1-3.3,3.7-4.5c0.4-0.3,0.6-0.6,0.5-1
	c0-0.2,0-0.4,0-0.7h-0.6c1.2-0.2,2-0.7,2.2-1.9c0.4,0.4,0.5,0.9,0.3,1.3c-0.2,0.5-0.7,0.7-1.4,0.6v0.9c0.9-0.3,1.9-0.7,2.9-1.1v-1.9
	c-0.1,0-0.2,0-0.3,0c-0.6,0-1-0.3-1.2-0.8c-0.2-0.5,0-1,0.5-1.4c0.1-0.1,0.2-0.2,0.3-0.4c0.1-0.5,0.5-0.8,1-0.8
	c0.5,0,0.8,0.3,0.9,0.9c0,0.1,0.1,0.3,0.2,0.3c0.5,0.4,0.7,0.9,0.6,1.4c-0.2,0.5-0.6,0.8-1.3,0.8c-0.1,0-0.1,0-0.2,0v1.9
	c1.1,0.5,2.2,0.9,3.4,1.4V19c-0.3,0.3-0.5,0-0.6-0.2c0.9-0.9,1.7-1.7,2.6-2.6c0.2,0.3,0.5,0.6,0.8,0.9c0,0,0.1,0,0.1,0
	c0-0.5,0.3-0.4,0.6-0.3c-0.3,1,0.4,1.4,1,2c-0.1,0.1-0.2,0.3-0.4,0.4c-0.1-0.1-0.2-0.1-0.3-0.2v0.9c0.7-0.3,1.3-0.7,1.9-1.2
	c0.1-0.1,0.1-0.2,0.1-0.2c0-0.6,0-1.3,0-1.9c-0.3,0-0.6,0-0.8-0.1c-0.4-0.2-0.7-0.5-0.7-1c0-0.4,0.2-0.8,0.5-1.1
	c0.1-0.1,0.3-0.3,0.3-0.5c0.1-0.5,0.5-0.8,0.9-0.8c0.5,0,0.8,0.3,1,0.8c0,0.2,0.1,0.4,0.3,0.4c0.5,0.4,0.7,0.9,0.5,1.4
	c-0.2,0.5-0.7,0.8-1.3,0.8c-0.1,0-0.1,0-0.2,0v1.7c0.2-0.2,0.3-0.4,0.4-0.5c1-1,1.9-2.1,2.9-3c0.6-0.6,1.5-0.9,2.2-1.3
	c0.3-0.1,0.5-0.3,0.4-0.6c0-0.2,0-0.4,0-0.5c-0.3-0.1-0.5-0.2-0.7-0.3c0.9-0.9,1.8-1.8,2.7-2.7c0.2,0.3,0.5,0.6,0.8,1
	c0-0.6,0.3-0.5,0.6-0.5c0.1,0.4,0.1,0.8,0.3,1.2c0.2,0.3,0.6,0.6,1,0.9c-0.3,0.1-0.5,0.2-0.7,0.3c0,0-0.1-0.1-0.1-0.1
	c0,0.3,0,0.6,0,1c0,0.1,0.1,0.2,0.2,0.3c2.1,1,3.5,2.7,4.9,4.4c1.7,2.2,3,4.5,4.1,7.1C51.1,25.2,51.1,25.2,51.9,25.3 M41.4,13.1
	c0-0.4,0-0.8,0-1.2c0-0.1,0-0.3-0.1-0.4c-0.5-0.5-1-1-1.5-1.6c-0.5,0.5-1,1-1.5,1.5c-0.1,0.1-0.1,0.2-0.1,0.2c0,0.4,0,0.9,0,1.3h0.6
	v-1.1h1.1v1.1H41.4z M27.5,18.9v1.2h1.7c0-0.4,0-0.8,0-1.1c0-0.1,0-0.3-0.1-0.4c-0.5-0.5-1-1-1.5-1.6c-0.5,0.5-1,1-1.5,1.5
	c-0.1,0.1-0.1,0.1-0.1,0.2c0,0.5,0,0.9,0,1.4c0.2,0,0.4,0,0.6,0v-1.2H27.5z"/>
<polygon class="st0" points="13.1,28 11.7,28 11.7,26.8 53.5,26.8 53.5,28 52.2,28 52.2,44.4 49.4,44.4 49.4,30.7 15.9,30.7 
	15.9,44.4 13.1,44.4 "/>
<path class="st0" d="M19.9,15.6c-0.3-0.2-0.5-0.5-0.8-0.7c-0.5-0.4-1.1-0.3-1.7-0.2c-2,0.4-4,0.4-6-0.4c-1.8-0.7-3.3-1.9-4.2-3.6
	c-0.5-1-1.6-1.3-2.5-0.9c-0.9,0.5-1.4,1.6-0.9,2.5c0.7,1.6,1.9,2.9,3.3,3.9c0.3,0.2,0.3,0.4,0.3,0.7C7,19,6.9,21.1,7.1,23.2
	c0,0.2,0.1,0.4,0.1,0.5c1.5,4,1.9,8.1,1.5,12.3c-0.3,2.4-0.8,4.7-1.6,6.9c-0.5,1.4-2.1,2-3.4,1.3c-1-0.6-1.4-1.8-1.1-3
	c0.5-1.6,1-3.2,1.2-4.8c0.6-3.6,0.3-7.2-0.9-10.7c-0.1-0.3-0.2-0.4-0.5-0.5c-1.4-0.6-2-1.8-2.2-3.2c-0.5-3.7-0.1-7.3,1.2-10.8
	c0.6-1.5,1.6-2.6,3.3-3C6.1,7.9,7,8.4,7.8,9.5c1.6,2.3,3.6,3.9,6.3,4.6c1.3,0.3,2.5,0.2,3.8-0.1C19.1,13.7,20,14.6,19.9,15.6"/>
<path class="st0" d="M6.3,4.3c0-2.4,2-4.3,4.4-4.3c2.4,0,4.2,2,4.2,4.4c0,2.3-2,4.3-4.4,4.2C8.2,8.6,6.3,6.6,6.3,4.3"/>
<path class="st0" d="M15.5,18.4c-4.1,0-7.3-1.1-9.8-3.8c-0.6-0.7-1.1-1.4-1.5-2.2c-0.5-0.8-0.2-1.7,0.6-2.1c0.8-0.4,1.7-0.1,2.1,0.8
	c1.3,2.3,3.3,3.6,5.9,4.1c1.6,0.3,3.2,0.2,4.8-0.1c1.3-0.2,2.3,0.7,1.9,1.9c-0.2,0.6-0.6,1-1.2,1.1C17.2,18.2,16.1,18.3,15.5,18.4"
	/>
<rect x="40.2" y="11.9" class="st0" width="0.6" height="0.6"/>
<rect x="28" y="18.9" class="st0" width="0.6" height="0.6"/>
</svg>
