<?xml version="1.0" encoding="utf-8"?>
<!-- Generator: Adobe Illustrator 22.0.0, SVG Export Plug-In . SVG Version: 6.00 Build 0)  -->
<svg version="1.1" id="Layer_1" xmlns="http://www.w3.org/2000/svg" xmlns:xlink="http://www.w3.org/1999/xlink" x="0px" y="0px"
	 viewBox="0 0 44 52.4" style="enable-background:new 0 0 44 52.4;" xml:space="preserve">
<style type="text/css">
	.Drop_x0020_Shadow{fill:none;}
	.Thick_x0020_Blue_x0020_Neon{fill:none;stroke:#0073BC;stroke-width:10;stroke-linecap:round;stroke-linejoin:round;}
	.Illuminating_x0020_Aqua{fill:url(#SVGID_1_);stroke:#FFFFFF;stroke-width:0.25;stroke-miterlimit:1;}
	.Black_x0020_Highlight{fill:url(#SVGID_2_);stroke:#FFFFFF;stroke-width:0.3629;stroke-miterlimit:1;}
	.Bugaboo_GS{fill-rule:evenodd;clip-rule:evenodd;fill:#FFDD00;}
	.st0{fill:#FFFFFF;}
</style>
<linearGradient id="SVGID_1_" gradientUnits="userSpaceOnUse" x1="-161.5201" y1="-187.6671" x2="-161.5201" y2="-188.6671">
	<stop  offset="0" style="stop-color:#1D59F4"/>
	<stop  offset="0.618" style="stop-color:#2D65EE"/>
	<stop  offset="0.6292" style="stop-color:#3864F3"/>
	<stop  offset="0.9831" style="stop-color:#00DDFC"/>
</linearGradient>
<linearGradient id="SVGID_2_" gradientUnits="userSpaceOnUse" x1="-161.5201" y1="-187.6671" x2="-161.5201" y2="-188.6671">
	<stop  offset="0" style="stop-color:#060606"/>
	<stop  offset="0.618" style="stop-color:#000000"/>
	<stop  offset="0.6292" style="stop-color:#000000"/>
	<stop  offset="0.9831" style="stop-color:#000000"/>
</linearGradient>
<path class="st0" d="M39.3,33.3v7.6c0,1,0,2,0,3c0,0.8-0.5,1.3-1.3,1.3c-0.7,0-1.4,0-2.2,0v0.6c0,1.7,0,3.5,0,5.2
	c0,0.9-0.5,1.4-1.4,1.4c-2.7,0-5.3,0-8,0c-0.9,0-1.4-0.5-1.4-1.4c0-1.9,0-3.8,0-5.8c-0.7,0-1.4,0-2.1,0c-1.1,0-1.5-0.4-1.5-1.5
	c0-3.3,0-6.5,0-9.8v-0.6h-0.6c-5.7,0-11.3,0-17,0c-2.3,0-3.8-1.5-3.8-3.8c0-8.5,0-17.1,0-25.6C0,1.5,1.5,0,3.9,0h36.3
	C42.5,0,44,1.5,44,3.8c0,8.6,0,17.1,0,25.7c0,2.3-1.5,3.8-3.8,3.8C39.9,33.3,39.6,33.3,39.3,33.3 M39.1,30.9c0.3,0,0.7,0,1,0
	c1.1,0,1.5-0.4,1.5-1.5V3.9c0-1.1-0.4-1.5-1.5-1.5H3.9c-1.1,0-1.5,0.4-1.5,1.5c0,8.5,0,17.1,0,25.6c0,1.1,0.4,1.5,1.5,1.5
	c5.7,0,11.5,0,17.2,0h0.5c0.5-2.1,1.5-3.8,3.1-5.1c1.6-1.3,3.5-2,5.7-2C33.5,23.8,37.9,25.7,39.1,30.9 M36.9,42.8c0-0.1,0-0.2,0-0.3
	c0-3.3,0-6.7,0-10c0-0.7-0.2-1.5-0.4-2.2c-1.1-2.9-4.1-4.6-7.3-4c-3,0.5-5.3,3.2-5.3,6.3c0,3.3,0,6.5,0,9.8c0,0.1,0,0.3,0,0.4
	c0.7,0,1.5,0,2.2,0c0.9,0,1.4,0.5,1.4,1.4c0,1.7,0,3.5,0,5.2v0.5h5.9c0-2,0-3.9,0-5.8c0-0.8,0.5-1.3,1.3-1.3
	C35.4,42.8,36.1,42.8,36.9,42.8"/>
<path class="st0" d="M34.7,20.1c0,2.9-2.4,5.4-5.4,5.4C26.4,25.4,24,23,24,20c0-2.9,2.4-5.3,5.3-5.3C32.3,14.7,34.7,17.1,34.7,20.1
	 M32.3,20c0-1.6-1.3-2.9-3-3c-1.7,0-3,1.3-3,3c0,1.6,1.3,3,3,3C31,23,32.3,21.7,32.3,20"/>
</svg>
