<?xml version="1.0" encoding="utf-8"?>
<!-- Generator: Adobe Illustrator 22.0.0, SVG Export Plug-In . SVG Version: 6.00 Build 0)  -->
<svg version="1.1" id="Layer_1" xmlns="http://www.w3.org/2000/svg" xmlns:xlink="http://www.w3.org/1999/xlink" x="0px" y="0px"
	 viewBox="0 0 68.1 70.9" style="enable-background:new 0 0 68.1 70.9;" xml:space="preserve">
<style type="text/css">
	.Drop_x0020_Shadow{fill:none;}
	.Thick_x0020_Blue_x0020_Neon{fill:none;stroke:#0073BC;stroke-width:10;stroke-linecap:round;stroke-linejoin:round;}
	.Illuminating_x0020_Aqua{fill:url(#SVGID_1_);stroke:#FFFFFF;stroke-width:0.25;stroke-miterlimit:1;}
	.Black_x0020_Highlight{fill:url(#SVGID_2_);stroke:#FFFFFF;stroke-width:0.3629;stroke-miterlimit:1;}
	.Bugaboo_GS{fill-rule:evenodd;clip-rule:evenodd;fill:#FFDD00;}
	.st0{fill:none;stroke:#FFFFFF;stroke-miterlimit:10;}
	.st1{fill:#FFFFFF;}
</style>
<linearGradient id="SVGID_1_" gradientUnits="userSpaceOnUse" x1="-312.9749" y1="-650.1396" x2="-312.9749" y2="-651.1396">
	<stop  offset="0" style="stop-color:#1D59F4"/>
	<stop  offset="0.618" style="stop-color:#2D65EE"/>
	<stop  offset="0.6292" style="stop-color:#3864F3"/>
	<stop  offset="0.9831" style="stop-color:#00DDFC"/>
</linearGradient>
<linearGradient id="SVGID_2_" gradientUnits="userSpaceOnUse" x1="-312.9749" y1="-650.1396" x2="-312.9749" y2="-651.1396">
	<stop  offset="0" style="stop-color:#060606"/>
	<stop  offset="0.618" style="stop-color:#000000"/>
	<stop  offset="0.6292" style="stop-color:#000000"/>
	<stop  offset="0.9831" style="stop-color:#000000"/>
</linearGradient>
<path class="st0" d="M39,26.7c-1.6-1.6-3.2-3.2-4.8-4.8c-0.1-0.1-0.3-0.1-0.4,0c-1.3,0.6-2.5,0.7-3.8,0c-0.3-0.2-0.4,0-0.6,0.1
	c-1.9,1.9-3.8,3.8-5.7,5.7c-1,1-2,2-3,3c-0.2,0.2-0.3,0.3-0.1,0.5c1.2,2.3,0.1,4.6-1.7,5.6c-1.9,1.2-4.1,0.7-5.6-1.1
	c-1.3-1.6-1.3-3.6,0-5.2c1.4-1.7,3.4-2.2,5.3-1.3c0.2,0.1,0.4,0.1,0.6-0.1c2.9-2.9,5.8-5.8,8.7-8.7c0.2-0.2,0.2-0.3,0.1-0.5
	c-0.8-1.6-0.6-3.1,0.5-4.5c1.1-1.3,2.5-2.1,4.3-1.6c1.8,0.4,2.9,1.6,3.4,3.3c0.3,0.9,0.1,1.9-0.3,2.7c-0.1,0.2-0.2,0.4,0,0.6
	c1.6,1.6,3.1,3.1,4.7,4.7c0,0,0.1,0.1,0.1,0.1c1.4-0.8,2.9-0.8,4.3,0c0.1-0.1,0.2-0.2,0.3-0.3c3.7-3.7,7.4-7.4,11.1-11.1
	c0.3-0.3,0.3-0.4,0.1-0.8c-1-1.9-0.2-4.2,1.7-5.5c1.9-1.2,4.1-0.7,5.6,1.1c1.3,1.6,1.3,3.7,0,5.3c-1.4,1.7-3.4,2.2-5.3,1.3
	c-0.3-0.1-0.4-0.1-0.6,0.1c-3.7,3.7-7.5,7.5-11.2,11.2c-0.2,0.2-0.2,0.3-0.1,0.6c0.9,1.8,0.4,3.8-1.2,5.2c-1.6,1.3-3.6,1.3-5.2,0.1
	C38.3,30.9,37.9,28.9,39,26.7z M60.4,13.4c1.4,0,2.2-0.8,2.2-2.2c0-1.3-0.8-2.2-2.2-2.2c-1.3,0-2.2,0.8-2.2,2.2
	C58.2,12.6,59,13.4,60.4,13.4z M31.8,20.1c1.4,0,2.2-0.8,2.2-2.2c0-1.4-0.8-2.2-2.2-2.2c-1.4,0-2.2,0.8-2.2,2.2
	C29.6,19.3,30.4,20.1,31.8,20.1z M18.9,33.1c0-1.4-0.8-2.2-2.2-2.2c-1.4,0-2.2,0.8-2.2,2.2c0,1.3,0.8,2.2,2.2,2.2
	C18,35.3,18.9,34.4,18.9,33.1z M44.9,28.9c0-1.4-0.8-2.2-2.2-2.2c-1.3,0-2.2,0.8-2.2,2.2c0,1.3,0.9,2.2,2.2,2.2
	C44.1,31.1,44.9,30.2,44.9,28.9z"/>
<path class="st1" d="M64.7,59.3H55V22.2h9.8V59.3z M57.1,57.1h5.4V24.4h-5.4V57.1z"/>
<path class="st0" d="M26.6,36.4h9.8v22.9h-9.8V36.4z M34.1,38.6h-5.4v18.5h5.4V38.6z"/>
<path class="st0" d="M40.8,37.4h9.8v21.8h-9.8V37.4z M48.3,39.6h-5.4v17.4h5.4V39.6z"/>
<path class="st0" d="M12.3,41.8h9.8v17.4h-9.8V41.8z M19.9,44h-5.4v13h5.4V44z"/>
</svg>
