<?xml version="1.0" encoding="utf-8"?>
<!-- Generator: Adobe Illustrator 22.0.0, SVG Export Plug-In . SVG Version: 6.00 Build 0)  -->
<svg version="1.1" id="Layer_1" xmlns="http://www.w3.org/2000/svg" xmlns:xlink="http://www.w3.org/1999/xlink" x="0px" y="0px"
	 viewBox="0 0 52.5 53.5" style="enable-background:new 0 0 52.5 53.5;" xml:space="preserve">
<style type="text/css">
	.Drop_x0020_Shadow{fill:none;}
	.Thick_x0020_Blue_x0020_Neon{fill:none;stroke:#0073BC;stroke-width:10;stroke-linecap:round;stroke-linejoin:round;}
	.Illuminating_x0020_Aqua{fill:url(#SVGID_1_);stroke:#FFFFFF;stroke-width:0.25;stroke-miterlimit:1;}
	.Black_x0020_Highlight{fill:url(#SVGID_2_);stroke:#FFFFFF;stroke-width:0.3629;stroke-miterlimit:1;}
	.Bugaboo_GS{fill-rule:evenodd;clip-rule:evenodd;fill:#FFDD00;}
	.st0{fill:#FFFFFF;}
</style>
<linearGradient id="SVGID_1_" gradientUnits="userSpaceOnUse" x1="-708.6332" y1="-659.2127" x2="-708.6332" y2="-660.2127">
	<stop  offset="0" style="stop-color:#1D59F4"/>
	<stop  offset="0.618" style="stop-color:#2D65EE"/>
	<stop  offset="0.6292" style="stop-color:#3864F3"/>
	<stop  offset="0.9831" style="stop-color:#00DDFC"/>
</linearGradient>
<linearGradient id="SVGID_2_" gradientUnits="userSpaceOnUse" x1="-708.6332" y1="-659.2127" x2="-708.6332" y2="-660.2127">
	<stop  offset="0" style="stop-color:#060606"/>
	<stop  offset="0.618" style="stop-color:#000000"/>
	<stop  offset="0.6292" style="stop-color:#000000"/>
	<stop  offset="0.9831" style="stop-color:#000000"/>
</linearGradient>
<path class="st0" d="M26,0c3.9,0,7.9,0,11.8,0c0.3,0,0.6,0.1,0.8,0.3c2.1,2.3,4.1,4.7,6.2,7.1c0.5,0.5,0.5,0.7,0,1.3
	C39,16.4,33.2,24,27.3,31.6c-0.4,0.5-0.8,0.5-1.2,0C20.2,24,14.3,16.3,8.5,8.7C8.2,8.3,8.2,8,8.4,7.6c1.7-2.4,3.3-4.7,4.9-7.1
	C13.6,0.1,13.9,0,14.3,0C18.2,0,22.1,0,26,0 M33,8.8H20.4c2.1,6.8,4.2,13.6,6.3,20.5C28.8,22.3,30.9,15.6,33,8.8 M24.8,27.9
	C24.9,27.9,24.9,27.9,24.8,27.9c0.1-0.1,0.1-0.2,0.1-0.2C23,21.5,21,15.3,19.1,9.1c-0.1-0.3-0.3-0.3-0.5-0.3c-2.7,0-5.4,0-8,0
	c-0.1,0-0.2,0-0.4,0C15.1,15.2,20,21.6,24.8,27.9 M28.4,27.9C28.5,28,28.5,28,28.4,27.9c5-6.3,9.9-12.7,14.8-19.2h-0.5
	c-2.6,0-5.3,0-7.9,0c-0.4,0-0.5,0.1-0.6,0.5c-1,3.4-2.1,6.8-3.2,10.3C30.2,22.3,29.3,25.1,28.4,27.9 M20.7,7.4h12.1
	c-0.1-0.1-0.1-0.2-0.1-0.2c-1.7-1.9-3.5-3.8-5.2-5.8c-0.3-0.3-1.2-0.3-1.5,0c-1.7,1.9-3.3,3.7-5,5.6C20.8,7.2,20.8,7.3,20.7,7.4
	 M18.1,7.5C18,7.3,18,7.1,17.9,7c-0.9-1.8-1.8-3.5-2.7-5.3c-0.3-0.5-0.7-0.6-1.1-0.1c-1.3,1.8-2.5,3.7-3.8,5.5
	c-0.1,0.1-0.1,0.2-0.2,0.4H18.1z M19.3,7c1.7-1.9,3.4-3.8,5.1-5.7h-8C17.4,3.2,18.4,5.1,19.3,7 M28.9,1.3c1.7,1.9,3.4,3.8,5.1,5.7
	c1-1.9,1.9-3.8,2.9-5.7H28.9z M43.2,7.5c-1.7-2-3.4-3.8-5-5.7c-1,1.9-1.9,3.8-2.9,5.7c0.2,0,0.2,0,0.3,0C38.1,7.5,40.5,7.5,43.2,7.5
	"/>
<path class="st0" d="M15.1,41h22.3c0-0.1,0.1-0.3,0.2-0.4c2.4-6,4.9-12.1,7.3-18.1c0-0.1,0.1-0.2,0.1-0.3c0.2-0.4,0.5-0.6,0.8-0.4
	c0.4,0.1,0.5,0.5,0.3,0.9c-0.9,2.2-1.8,4.4-2.7,6.6c-1.6,3.9-3.2,7.9-4.8,11.8c0,0.1-0.1,0.2-0.2,0.4c1.6,0.9,2.6,2.2,2.9,4.1
	c0.7,0,1.3,0,2,0c1.5,0,2.6,0.6,3.4,1.9c0.5,0.7,0.7,1.5,0.7,2.3v2.4H50c0.6,0,1.2,0,1.8,0c0.4,0,0.7,0.2,0.7,0.6
	c0,0.4-0.3,0.6-0.7,0.6c-0.1,0-0.3,0-0.4,0H1.1c-0.1,0-0.3,0-0.4,0c-0.4,0-0.7-0.2-0.7-0.6c0-0.4,0.3-0.6,0.7-0.6c0.8,0,1.7,0,2.5,0
	h1.8c0-0.9,0-1.7,0-2.5c0-1.2,0.4-2.2,1.3-3c0.8-0.7,1.7-1.1,2.8-1.1c0.6,0,1.3,0,1.9,0c0.3-1.9,1.2-3.2,2.9-4.1
	c-0.5-1.3-1.1-2.7-1.6-4c-2-4.9-3.9-9.8-5.9-14.7c-0.1-0.1-0.2-0.3-0.1-0.4c0.1-0.2,0.2-0.6,0.4-0.6c0.2-0.1,0.5,0.1,0.8,0.2
	c0.1,0.1,0.2,0.3,0.2,0.5c2.4,6,4.9,12.1,7.3,18.1C15,40.7,15.1,40.9,15.1,41 M46.2,52.2v-1.1c0-0.4,0-0.9,0-1.3c0-1.8-1.2-3-3-3
	c-11.3,0-22.6,0-33.9,0c-0.1,0-0.2,0-0.3,0C7.8,47,6.6,47.8,6.5,49c-0.2,1.1,0,2.2,0,3.3h7.9v-0.6c0-0.6,0-1.1,0-1.7
	c0-0.4,0.2-0.7,0.6-0.7c0.4,0,0.6,0.2,0.6,0.6c0,0.2,0,0.3,0,0.5c0,0.6,0,1.2,0,1.9H20c0-0.2,0-0.4,0-0.5c0-0.6,0-1.2,0-1.8
	c0-0.3,0.2-0.6,0.5-0.6c0.2,0,0.5,0.2,0.7,0.4c0.1,0.1,0.1,0.3,0.1,0.5c0,0.7,0,1.4,0,2.1h4.4c0-0.8,0-1.5,0-2.3
	c0-0.2,0.2-0.5,0.4-0.6c0.1-0.1,0.5,0,0.6,0.1c0.1,0.1,0.2,0.4,0.2,0.6c0,0.7,0,1.4,0,2.2h4.4c0-0.7,0-1.4,0-2c0-0.6,0.2-1,0.6-1
	c0.4,0,0.6,0.3,0.6,1c0,0.2,0,0.5,0,0.7v1.3H37c0-0.8,0-1.5,0-2.3c0-0.2,0.2-0.5,0.3-0.6c0.2-0.1,0.5-0.1,0.6,0
	c0.2,0.2,0.3,0.4,0.3,0.7c0,0.7,0,1.4,0,2.1h4.4c0-0.7,0-1.4,0-2.1c0-0.5,0.2-0.9,0.7-0.8c0.4,0,0.6,0.3,0.6,0.8c0,0.7,0,1.4,0,2.1
	H46.2z M12.4,45.6h27.7c0-0.1,0-0.2,0-0.2c-0.4-1.9-2.1-3.2-4-3.2c-3.1,0-6.2,0-9.4,0c-3.4,0-6.8,0-10.2,0
	C14.4,42.2,12.6,43.7,12.4,45.6"/>
</svg>
