<?xml version="1.0" encoding="utf-8"?>
<!-- Generator: Adobe Illustrator 22.0.0, SVG Export Plug-In . SVG Version: 6.00 Build 0)  -->
<svg version="1.1" id="Layer_1" xmlns="http://www.w3.org/2000/svg" xmlns:xlink="http://www.w3.org/1999/xlink" x="0px" y="0px"
	 viewBox="0 0 48.8 46.6" style="enable-background:new 0 0 48.8 46.6;" xml:space="preserve">
<style type="text/css">
	.Drop_x0020_Shadow{fill:none;}
	.Thick_x0020_Blue_x0020_Neon{fill:none;stroke:#0073BC;stroke-width:10;stroke-linecap:round;stroke-linejoin:round;}
	.Illuminating_x0020_Aqua{fill:url(#SVGID_1_);stroke:#FFFFFF;stroke-width:0.25;stroke-miterlimit:1;}
	.Black_x0020_Highlight{fill:url(#SVGID_2_);stroke:#FFFFFF;stroke-width:0.3629;stroke-miterlimit:1;}
	.Bugaboo_GS{fill-rule:evenodd;clip-rule:evenodd;fill:#FFDD00;}
	.st0{fill:#FFFFFF;}
</style>
<linearGradient id="SVGID_1_" gradientUnits="userSpaceOnUse" x1="-192.1993" y1="-147.0832" x2="-192.1993" y2="-148.0832">
	<stop  offset="0" style="stop-color:#1D59F4"/>
	<stop  offset="0.618" style="stop-color:#2D65EE"/>
	<stop  offset="0.6292" style="stop-color:#3864F3"/>
	<stop  offset="0.9831" style="stop-color:#00DDFC"/>
</linearGradient>
<linearGradient id="SVGID_2_" gradientUnits="userSpaceOnUse" x1="-192.1993" y1="-147.0832" x2="-192.1993" y2="-148.0832">
	<stop  offset="0" style="stop-color:#060606"/>
	<stop  offset="0.618" style="stop-color:#000000"/>
	<stop  offset="0.6292" style="stop-color:#000000"/>
	<stop  offset="0.9831" style="stop-color:#000000"/>
</linearGradient>
<path class="st0" d="M25.6,35.6c0,1,0,2,0,3c0,0.1,0.2,0.3,0.3,0.4c2.5,1.9,5.1,3.8,7.6,5.7c0.5,0.4,0.7,0.8,0.5,1.3
	c-0.2,0.7-1,1-1.7,0.5c-1.1-0.8-2.3-1.6-3.4-2.5c-1-0.7-2-1.4-2.9-2.2c-0.1-0.1-0.2-0.1-0.4-0.3c0,0.2,0,0.3,0,0.4
	c0,1.2,0,2.4,0,3.5c0,0.7-0.4,1.1-1.1,1.1c-0.7,0-1.1-0.4-1.1-1.1c0-1.2,0-2.3,0-3.5v-0.5c-0.2,0.1-0.3,0.2-0.4,0.3
	c-2.1,1.5-4.1,3-6.2,4.4c-0.2,0.1-0.3,0.2-0.5,0.3c-0.5,0.3-1,0.1-1.4-0.3c-0.3-0.5-0.3-1,0.2-1.4c0.6-0.4,1.1-0.8,1.7-1.3
	c2.1-1.5,4.1-3,6.2-4.5c0.2-0.2,0.3-0.4,0.3-0.7c0-0.9,0-1.8,0-2.7h-0.6c-5.9,0-11.9,0-17.8,0c-1.7,0-2.6-1.2-2.6-2.6
	c0-7.9,0-15.8,0-23.7V8.8c-0.1,0-0.3,0-0.4,0C0.9,8.7,0,7.8,0,6.7c0-0.7,0-1.5,0-2.2C0,3.3,1,2.4,2.2,2.4c1.2,0,2.5,0,3.7,0h17h0.5
	c0-0.5,0-0.9,0-1.4c0.1-0.6,0.5-1,1.1-1s1,0.4,1,1.1c0,0.3,0,0.5,0,0.8c0,0.1,0,0.3,0,0.5h0.5h20.2c1.6,0,2.5,0.8,2.5,2.5
	c0,0.6,0,1.1,0,1.7c0,1.4-0.9,2.3-2.2,2.3c-0.1,0-0.1,0-0.2,0v0.5c0,8,0,15.9,0,23.9c0,1.1-0.6,2-1.6,2.3c-0.3,0.1-0.6,0.1-0.9,0.1
	c-5.9,0-11.8,0-17.7,0H25.6z M4.7,33.3h39.5V8.8H4.7V33.3z M46.6,4.6H2.2v2h44.4V4.6z"/>
</svg>
