<?xml version="1.0" encoding="utf-8"?>
<!-- Generator: Adobe Illustrator 22.0.0, SVG Export Plug-In . SVG Version: 6.00 Build 0)  -->
<svg version="1.1" id="Layer_1" xmlns="http://www.w3.org/2000/svg" xmlns:xlink="http://www.w3.org/1999/xlink" x="0px" y="0px"
	 viewBox="0 0 106.1 106.2" style="enable-background:new 0 0 106.1 106.2;" xml:space="preserve">
<style type="text/css">
	.Drop_x0020_Shadow{fill:none;}
	.Thick_x0020_Blue_x0020_Neon{fill:none;stroke:#0073BC;stroke-width:10;stroke-linecap:round;stroke-linejoin:round;}
	.Illuminating_x0020_Aqua{fill:url(#SVGID_1_);stroke:#FFFFFF;stroke-width:0.25;stroke-miterlimit:1;}
	.Black_x0020_Highlight{fill:url(#SVGID_2_);stroke:#FFFFFF;stroke-width:0.3629;stroke-miterlimit:1;}
	.Bugaboo_GS{fill-rule:evenodd;clip-rule:evenodd;fill:#FFDD00;}
	.st0{fill:#FFFFFF;}
</style>
<linearGradient id="SVGID_1_" gradientUnits="userSpaceOnUse" x1="-621.3982" y1="-608" x2="-621.3982" y2="-609">
	<stop  offset="0" style="stop-color:#1D59F4"/>
	<stop  offset="0.618" style="stop-color:#2D65EE"/>
	<stop  offset="0.6292" style="stop-color:#3864F3"/>
	<stop  offset="0.9831" style="stop-color:#00DDFC"/>
</linearGradient>
<linearGradient id="SVGID_2_" gradientUnits="userSpaceOnUse" x1="-621.3982" y1="-608" x2="-621.3982" y2="-609">
	<stop  offset="0" style="stop-color:#060606"/>
	<stop  offset="0.618" style="stop-color:#000000"/>
	<stop  offset="0.6292" style="stop-color:#000000"/>
	<stop  offset="0.9831" style="stop-color:#000000"/>
</linearGradient>
<g>
	<path class="st0" d="M29,41.7c1-0.7,1.8-1.2,2.6-1.8c0-0.1,0-0.1-0.1-0.2c0.3,0.1,0.7,0.3,1,0.4c5.4,2.4,10.8,4.7,16.2,7.1
		c0.5,0.2,0.7,0.4,0.6,1c-0.2,1.7,0.9,3.3,2.5,3.9c0.5,0.2,0.6,0.4,0.6,0.9c0,7.3,0,14.6,0,22c0,0.5-0.1,0.7-0.6,0.9
		c-0.6,0.3-1.2,0.7-1.7,1.1c-0.3,0.3-0.5,0.3-0.9,0.1c-5.5-2.4-11-4.8-16.6-7.2c-0.3-0.1-0.6-0.2-0.5-0.7c0.1-1.9-0.8-3.3-2.6-4.1
		C29.2,65,29,64.9,29,64.4c0-7.5,0-15.1,0-22.6C29,41.7,29.1,41.6,29,41.7"/>
	<path class="st0" d="M74.4,39.9c0.9,0.6,1.7,1,2.4,1.5c0.2,0.1,0.4,0.4,0.4,0.7c0,1.6,0,3.1,0,4.7c0,5.8,0,11.6,0,17.4
		c0,0.6-0.1,0.8-0.7,1c-1.8,0.6-2.6,2.1-2.5,4.4c-1.9,0.8-3.8,1.6-5.7,2.5c-3.8,1.6-7.5,3.3-11.3,4.9c-0.5,0.2-0.8,0.2-1.2-0.2
		c-0.4-0.4-1-0.8-1.6-1c-0.4-0.2-0.5-0.3-0.5-0.8c0-7.3,0-14.7,0-22c0-0.4,0.1-0.6,0.5-0.7c2-0.7,2.9-2.1,2.7-4.2
		c-0.1-0.5,0.2-0.6,0.6-0.7c4.8-2.1,9.6-4.2,14.4-6.3C72.8,40.6,73.7,40.2,74.4,39.9"/>
	<path class="st0" d="M32.1,36.7c3.5-1.5,6.9-3,10.4-4.5c2.3-1,4.6-2,6.8-3c0.3-0.1,0.5-0.2,0.9,0.1c2,2,4.1,1.9,6-0.2
		c0,0,0.1-0.1,0.2-0.1c2,0.9,4,1.7,6,2.6c3.7,1.6,7.4,3.2,11.1,4.8c0.5,0.2,0.8,0.4,0.6,1c-0.1,0.4,0,0.7,0,1.2
		c-5.9,2.5-11.8,5.1-17.7,7.7c-2.1-2.5-5-2-6.5,0c-0.2-0.1-0.4-0.2-0.7-0.3c-5.4-2.4-10.8-4.8-16.2-7.1c-0.7-0.3-1.1-0.6-0.9-1.4
		C32.1,37.3,32.1,37,32.1,36.7"/>
	<path class="st0" d="M28.1,71.2c-1.4,0-2.5-1.2-2.5-2.6c0-1.4,1.2-2.5,2.6-2.5c1.4,0,2.5,1.2,2.5,2.7
		C30.7,70.2,29.6,71.2,28.1,71.2"/>
	<path class="st0" d="M77.9,35c1.4,0,2.6,1.1,2.6,2.5c0,1.4-1.1,2.5-2.5,2.5c-1.4,0-2.5-1.1-2.6-2.6C75.4,36.1,76.5,35,77.9,35"/>
	<path class="st0" d="M28.1,35c1.4,0,2.5,1.2,2.5,2.6c0,1.4-1.2,2.5-2.7,2.5c-1.3,0-2.4-1.2-2.4-2.6C25.6,36.1,26.8,35,28.1,35"/>
	<path class="st0" d="M77.9,66.2c1.5,0,2.6,1,2.6,2.5c0,1.4-1.2,2.5-2.6,2.5c-1.4,0-2.5-1.2-2.5-2.6C75.4,67.2,76.5,66.2,77.9,66.2"
		/>
	<path class="st0" d="M55.6,48.5c0,1.4-1.2,2.5-2.6,2.5c-1.4,0-2.5-1.2-2.5-2.5c0-1.4,1.2-2.6,2.5-2.6
		C54.4,45.9,55.6,47.1,55.6,48.5"/>
	<path class="st0" d="M53,24.2c1.4,0,2.5,1.1,2.6,2.5c0,1.4-1.1,2.5-2.5,2.5c-1.4,0-2.5-1.1-2.5-2.5C50.5,25.3,51.6,24.2,53,24.2"/>
	<path class="st0" d="M53,82c-1.4,0-2.6-1.1-2.5-2.5c0-1.3,1.2-2.5,2.5-2.5c1.4,0,2.5,1.1,2.6,2.5C55.6,80.9,54.5,82,53,82"/>
	<path class="st0" d="M26.7,85.2c0.8,0.6,1.4,1.1,2.1,1.6c-0.2,0.3-0.4,0.6-0.7,1c-0.7-0.6-1.4-1.1-2.1-1.7
		C26.2,85.8,26.4,85.5,26.7,85.2"/>
	<path class="st0" d="M15.6,73.4c0.3-0.2,0.6-0.3,0.9-0.5c0.4,0.7,0.9,1.5,1.4,2.2c-0.3,0.2-0.6,0.4-0.9,0.7
		C16.5,75,16,74.2,15.6,73.4"/>
	<path class="st0" d="M52.9,10.6v1c-0.8,0-1.6,0.1-2.5,0c-0.2,0-0.3-0.5-0.6-1H52.9z"/>
	<path class="st0" d="M36.8,13.6c0.2,0.4,0.3,0.6,0.4,1c-0.8,0.4-1.6,0.7-2.5,1.1c-0.2-0.3-0.3-0.6-0.5-1
		C35.1,14.4,35.9,14,36.8,13.6"/>
	<path class="st0" d="M12.1,60.3c-0.4,0.1-0.7,0.2-1.1,0.3c-0.1-0.9-0.3-1.8-0.4-2.7c0.4-0.1,0.7-0.2,1-0.3
		C11.9,58.6,12,59.4,12.1,60.3"/>
	<path class="st0" d="M55.6,11.6v-1.1c0.9,0.1,1.8,0.2,2.7,0.2c0,0.4-0.1,0.7-0.1,1.1C57.3,11.7,56.5,11.6,55.6,11.6"/>
	<path class="st0" d="M95.6,51.9h-0.9c-0.1-0.8-0.2-1.5-0.1-2.3c0-0.2,0.6-0.4,0.8-0.6c0.1,0.1,0.1,0.1,0.2,0.2V51.9z"/>
	<path class="st0" d="M45.8,95.1c0-0.4,0.1-0.7,0.1-1.1c0.9,0.1,1.7,0.3,2.7,0.4c-0.1,0.4-0.1,0.7-0.2,1.1
		C47.6,95.3,46.7,95.2,45.8,95.1"/>
	<path class="st0" d="M94.6,53.3h1c0,0.8,0,1.5,0,2.2c0,0.5-0.2,0.5-1.1,0.3C94.5,55,94.6,54.1,94.6,53.3"/>
	<path class="st0" d="M82.6,22.5c-0.3,0.3-0.5,0.5-0.7,0.8c-0.7-0.6-1.3-1.2-2-1.8c0.2-0.3,0.4-0.5,0.7-0.8
		C81.3,21.2,81.9,21.8,82.6,22.5"/>
	<path class="st0" d="M91.1,36.3c-0.4-0.8-0.8-1.6-1.2-2.4c0.3-0.2,0.6-0.3,0.9-0.6c0.4,0.9,0.8,1.7,1.2,2.5
		C91.7,36.1,91.5,36.2,91.1,36.3"/>
	<path class="st0" d="M81.5,84.8c-0.2-0.3-0.4-0.5-0.6-0.7c0.7-0.6,1.3-1.2,2-1.9c0.2,0.2,0.4,0.4,0.6,0.6
		C82.8,83.5,82.2,84.1,81.5,84.8"/>
	<path class="st0" d="M92.2,38.9c0.3-0.1,0.6-0.3,0.9-0.4c0.3,0.9,0.5,1.7,0.8,2.6c-0.4,0.1-0.6,0.2-1,0.3
		C92.7,40.5,92.5,39.7,92.2,38.9"/>
	<path class="st0" d="M35.3,91.9c0.1-0.3,0.3-0.6,0.4-0.9c0.8,0.3,1.6,0.7,2.5,1c-0.1,0.3-0.2,0.6-0.4,1
		C37,92.6,36.2,92.3,35.3,91.9"/>
	<path class="st0" d="M10.5,52.4h1c0,0.8,0.1,1.5,0,2.3c0,0.2-0.5,0.4-1,0.7V52.4z"/>
	<path class="st0" d="M59.4,95.3c-0.9,0.1-1.7,0.2-2.6,0.3c-0.1-0.3-0.1-0.6-0.2-1c0.9-0.1,1.7-0.2,2.7-0.3
		C59.3,94.7,59.4,95,59.4,95.3"/>
	<path class="st0" d="M83.8,25.1c0.3-0.2,0.5-0.4,0.8-0.7c0.6,0.7,1.1,1.4,1.7,2.1c-0.3,0.2-0.5,0.4-0.8,0.6
		C85,26.5,84.4,25.8,83.8,25.1"/>
	<path class="st0" d="M25.8,21.7c-0.2-0.3-0.4-0.5-0.7-0.8c0.7-0.6,1.4-1.1,2.1-1.7c0.2,0.3,0.4,0.5,0.6,0.8
		C27.2,20.5,26.6,21.1,25.8,21.7"/>
	<path class="st0" d="M10.8,46.9c0.4,0,0.7,0.1,1,0.1c-0.1,0.9-0.2,1.7-0.3,2.7c-0.3,0-0.6-0.1-1-0.1C10.6,48.6,10.7,47.8,10.8,46.9
		"/>
	<path class="st0" d="M16.2,31.5c0.3,0.2,0.6,0.3,0.9,0.5c-0.4,0.7-0.9,1.5-1.3,2.2c-0.3-0.1-0.6-0.2-0.9-0.4
		C15.4,33.1,15.8,32.4,16.2,31.5"/>
	<path class="st0" d="M72.5,91.1c-0.1-0.4-0.3-0.6-0.4-0.9c0.8-0.4,1.5-0.9,2.4-1.3c0.2,0.3,0.3,0.5,0.5,0.9
		C74.2,90.2,73.4,90.6,72.5,91.1"/>
	<path class="st0" d="M60.8,12.3c0.1-0.3,0.2-0.6,0.3-1.1c0.9,0.2,1.7,0.4,2.6,0.6c-0.1,0.3-0.2,0.6-0.2,0.9
		C62.5,12.6,61.7,12.5,60.8,12.3"/>
	<path class="st0" d="M69.5,91.3c0.2,0.4,0.3,0.6,0.4,0.9c-0.8,0.3-1.6,0.6-2.5,1c-0.2-0.3-0.3-0.6-0.4-0.9
		C67.9,92,68.7,91.7,69.5,91.3"/>
	<path class="st0" d="M13.2,68.5c0.4-0.2,0.6-0.3,0.9-0.4c0.4,0.9,0.7,1.7,1.1,2.5c-0.3,0.1-0.6,0.2-0.9,0.4
		C13.9,70.1,13.5,69.4,13.2,68.5"/>
	<path class="st0" d="M86.4,78.2c0.3,0.2,0.5,0.4,0.8,0.6c-0.6,0.7-1.2,1.4-1.7,2.1c-0.2-0.2-0.5-0.4-0.8-0.6
		C85.2,79.6,85.7,78.9,86.4,78.2"/>
	<rect x="51.3" y="94.7" class="st0" width="2.6" height="1"/>
	<path class="st0" d="M42.1,11.9c0.1,0.3,0.2,0.6,0.3,0.9c-0.9,0.3-1.8,0.5-2.6,0.8c-0.1-0.3-0.2-0.6-0.3-0.9
		C40.3,12.5,41.2,12.2,42.1,11.9"/>
	<path class="st0" d="M94.3,58.5c0.4,0.1,0.7,0.1,1,0.1c-0.2,0.9-0.3,1.8-0.5,2.7c-0.3-0.1-0.6-0.2-0.9-0.3
		C94.1,60.2,94.2,59.4,94.3,58.5"/>
	<path class="st0" d="M12.1,41.4c0.4,0.1,0.6,0.2,0.9,0.3c-0.2,0.9-0.4,1.7-0.7,2.6c-0.3-0.1-0.5-0.1-0.9-0.2
		C11.7,43.2,11.9,42.3,12.1,41.4"/>
	<path class="st0" d="M94.2,46.6c-0.2-0.9-0.3-1.7-0.5-2.6c0.3-0.1,0.5-0.2,0.9-0.3c0.2,0.9,0.3,1.7,0.5,2.6
		C94.8,46.4,94.6,46.5,94.2,46.6"/>
	<path class="st0" d="M71,15.7c0.2-0.3,0.3-0.6,0.4-0.9c0.8,0.4,1.5,0.8,2.4,1.3c-0.1,0.3-0.2,0.5-0.4,0.8
		C72.6,16.5,71.8,16.1,71,15.7"/>
	<path class="st0" d="M21.2,24.7c0.6-0.7,1.2-1.3,1.8-2c0.2,0.2,0.4,0.5,0.6,0.7c-0.5,0.6-1.1,1.2-1.7,1.9
		C21.7,25.2,21.5,25,21.2,24.7"/>
	<path class="st0" d="M76.8,87.5c0.7-0.5,1.4-1,2.1-1.6c0.2,0.3,0.4,0.5,0.7,0.8c-0.8,0.5-1.5,1.1-2.3,1.6
		C77.1,88,76.9,87.7,76.8,87.5"/>
	<path class="st0" d="M24.5,83.6c-0.1,0.2-0.3,0.4-0.5,0.6c-0.7-0.7-1.3-1.3-2-2c0.2-0.2,0.4-0.4,0.6-0.6
		C23.3,82.3,23.9,83,24.5,83.6"/>
	<path class="st0" d="M78.5,19c-0.2,0.3-0.4,0.5-0.5,0.7c-0.8-0.5-1.5-1-2.2-1.6c0.2-0.3,0.3-0.5,0.5-0.8C77,18,77.7,18.5,78.5,19"
		/>
	<path class="st0" d="M90.3,74.3c-0.6,0.8-1.1,1.5-1.6,2.2c-0.2-0.1-0.4-0.3-0.7-0.5c0.5-0.8,1-1.5,1.4-2.3
		C89.7,74,90,74.1,90.3,74.3"/>
	<path class="st0" d="M19.5,26.9c0.3,0.2,0.5,0.4,0.8,0.6c-0.5,0.7-1,1.4-1.6,2.1c-0.3-0.2-0.5-0.3-0.8-0.5
		C18.4,28.4,18.9,27.7,19.5,26.9"/>
	<path class="st0" d="M13.8,39.2c-0.3-0.1-0.5-0.2-0.9-0.4c0.4-0.8,0.7-1.6,1.1-2.5c0.3,0.1,0.6,0.3,0.9,0.4
		C14.5,37.5,14.2,38.3,13.8,39.2"/>
	<path class="st0" d="M91.6,69c0.3,0.1,0.6,0.3,0.9,0.4c-0.4,0.8-0.7,1.5-1.1,2.4c-0.3-0.1-0.6-0.3-0.9-0.4
		C90.9,70.6,91.2,69.8,91.6,69"/>
	<path class="st0" d="M68.9,13.5c-0.1,0.3-0.2,0.6-0.2,0.9c-0.8-0.3-1.6-0.6-2.5-0.9c0.1-0.3,0.2-0.6,0.3-0.9
		C67.2,12.9,68,13.2,68.9,13.5"/>
	<path class="st0" d="M44.8,11.3c0.9-0.1,1.7-0.3,2.6-0.4v0.9c-0.8,0.2-1.6,0.3-2.5,0.5C44.9,12,44.8,11.7,44.8,11.3"/>
	<path class="st0" d="M88.6,31.6c-0.5-0.8-1-1.5-1.5-2.2c0.2-0.2,0.5-0.3,0.8-0.5c0.5,0.8,1,1.5,1.5,2.2
		C89.1,31.3,88.9,31.5,88.6,31.6"/>
	<path class="st0" d="M93.4,63.8c0.3,0.1,0.6,0.2,0.9,0.3c-0.3,0.8-0.5,1.6-0.8,2.5c-0.3-0.1-0.6-0.2-0.9-0.3
		C92.9,65.4,93.1,64.6,93.4,63.8"/>
	<path class="st0" d="M29.6,17.7c0.8-0.5,1.6-0.9,2.4-1.4c0.2,0.3,0.3,0.6,0.5,0.8c-0.8,0.4-1.5,0.9-2.4,1.3
		C30,18.2,29.8,18,29.6,17.7"/>
	<path class="st0" d="M43.2,94.5c-0.9-0.2-1.8-0.4-2.7-0.6c0.1-0.3,0.1-0.6,0.2-0.9c0.8,0.2,1.7,0.4,2.5,0.7
		C43.2,93.9,43.2,94.2,43.2,94.5"/>
	<path class="st0" d="M62.2,94.8c-0.1-0.3-0.1-0.6-0.2-0.9c0.9-0.2,1.7-0.4,2.6-0.7c0.1,0.3,0.2,0.5,0.3,0.8
		C64,94.3,63.1,94.5,62.2,94.8"/>
	<path class="st0" d="M12.5,63c0.2,0.9,0.4,1.6,0.6,2.5c-0.2,0.1-0.5,0.2-0.8,0.4c-0.3-0.9-0.5-1.7-0.8-2.6
		C11.9,63.2,12.2,63.1,12.5,63"/>
	<path class="st0" d="M19.2,77.6c0.5,0.7,1,1.4,1.6,2.2c-0.2,0.2-0.4,0.3-0.6,0.6c-0.6-0.8-1.2-1.4-1.8-2.2
		C18.7,78,18.9,77.8,19.2,77.6"/>
	<path class="st0" d="M33.1,89.9c-0.1,0.2-0.2,0.5-0.4,0.8c-0.8-0.5-1.6-0.9-2.4-1.3c0.2-0.3,0.3-0.5,0.5-0.8
		C31.7,89,32.4,89.5,33.1,89.9"/>
</g>
</svg>
