<?xml version="1.0" encoding="utf-8"?>
<!-- Generator: Adobe Illustrator 22.0.0, SVG Export Plug-In . SVG Version: 6.00 Build 0)  -->
<svg version="1.1" id="Layer_1" xmlns="http://www.w3.org/2000/svg" xmlns:xlink="http://www.w3.org/1999/xlink" x="0px" y="0px"
	 viewBox="0 0 25.4 54.5" style="enable-background:new 0 0 25.4 54.5;" xml:space="preserve">
<style type="text/css">
	.Drop_x0020_Shadow{fill:none;}
	.Thick_x0020_Blue_x0020_Neon{fill:none;stroke:#0073BC;stroke-width:10;stroke-linecap:round;stroke-linejoin:round;}
	.Illuminating_x0020_Aqua{fill:url(#SVGID_1_);stroke:#FFFFFF;stroke-width:0.25;stroke-miterlimit:1;}
	.Black_x0020_Highlight{fill:url(#SVGID_2_);stroke:#FFFFFF;stroke-width:0.3629;stroke-miterlimit:1;}
	.Bugaboo_GS{fill-rule:evenodd;clip-rule:evenodd;fill:#FFDD00;}
	.st0{fill:none;stroke:#FFFFFF;stroke-miterlimit:10;}
</style>
<linearGradient id="SVGID_1_" gradientUnits="userSpaceOnUse" x1="-350.883" y1="-531.5" x2="-350.883" y2="-532.5">
	<stop  offset="0" style="stop-color:#1D59F4"/>
	<stop  offset="0.618" style="stop-color:#2D65EE"/>
	<stop  offset="0.6292" style="stop-color:#3864F3"/>
	<stop  offset="0.9831" style="stop-color:#00DDFC"/>
</linearGradient>
<linearGradient id="SVGID_2_" gradientUnits="userSpaceOnUse" x1="-350.883" y1="-531.5" x2="-350.883" y2="-532.5">
	<stop  offset="0" style="stop-color:#060606"/>
	<stop  offset="0.618" style="stop-color:#000000"/>
	<stop  offset="0.6292" style="stop-color:#000000"/>
	<stop  offset="0.9831" style="stop-color:#000000"/>
</linearGradient>
<path class="st0" d="M23.4,0.5c1.1,0.4,1.5,1.2,1.5,2.3c0,12.5,0,24.9,0,37.4c0,1.5-0.7,2.2-2.2,2.2c-2,0-4.1,0-6.1,0H16v10.8h5.7
	V54H3.6v-0.7h5.7V42.4H8.9c-2.1,0-4.2,0-6.3,0c-1.3,0-2.1-0.8-2.1-2.1c0-12.6,0-25.2,0-37.8C0.5,1.5,1,0.8,2,0.5H23.4z M1.3,21.5
	c0,6.2,0,12.5,0,18.7c0,1.2,0.4,1.5,1.5,1.5c6.6,0,13.2,0,19.9,0c0.1,0,0.3,0,0.4,0c0.6,0,1-0.4,1.1-1c0-0.2,0-0.4,0-0.6
	c0-12.4,0-24.8,0-37.2c0-1.2-0.4-1.6-1.5-1.6c-6.6,0-13.2,0-19.9,0c-0.2,0-0.4,0-0.5,0c-0.5,0.1-0.9,0.4-1,0.9c0,0.2,0,0.4,0,0.6
	C1.3,9,1.3,15.3,1.3,21.5z M10.2,53.2h5V42.5h-5V53.2z"/>
<path class="st0" d="M22.2,34.2h-19V6.8h19V34.2z M4,33.4h17.4V7.6H4V33.4z"/>
<path class="st0" d="M9.9,3.7h5.7c0.1,0.3,0,0.4-0.2,0.4c-1.8,0-3.5,0-5.3,0C9.8,4.1,9.7,4,9.9,3.7z"/>
</svg>
