<?xml version="1.0" encoding="utf-8"?>
<!-- Generator: Adobe Illustrator 22.0.0, SVG Export Plug-In . SVG Version: 6.00 Build 0)  -->
<svg version="1.1" id="Layer_1" xmlns="http://www.w3.org/2000/svg" xmlns:xlink="http://www.w3.org/1999/xlink" x="0px" y="0px"
	 viewBox="0 0 26.8 26.8" style="enable-background:new 0 0 26.8 26.8;" xml:space="preserve">
<style type="text/css">
	.Drop_x0020_Shadow{fill:none;}
	.Thick_x0020_Blue_x0020_Neon{fill:none;stroke:#0073BC;stroke-width:10;stroke-linecap:round;stroke-linejoin:round;}
	.Illuminating_x0020_Aqua{fill:url(#SVGID_1_);stroke:#FFFFFF;stroke-width:0.25;stroke-miterlimit:1;}
	.Black_x0020_Highlight{fill:url(#SVGID_2_);stroke:#FFFFFF;stroke-width:0.3629;stroke-miterlimit:1;}
	.Bugaboo_GS{fill-rule:evenodd;clip-rule:evenodd;fill:#FFDD00;}
	.st0{fill-rule:evenodd;clip-rule:evenodd;fill:#2F1B5D;}
</style>
<linearGradient id="SVGID_1_" gradientUnits="userSpaceOnUse" x1="-179.2351" y1="-173.3341" x2="-179.2351" y2="-174.3341">
	<stop  offset="0" style="stop-color:#1D59F4"/>
	<stop  offset="0.618" style="stop-color:#2D65EE"/>
	<stop  offset="0.6292" style="stop-color:#3864F3"/>
	<stop  offset="0.9831" style="stop-color:#00DDFC"/>
</linearGradient>
<linearGradient id="SVGID_2_" gradientUnits="userSpaceOnUse" x1="-179.2351" y1="-173.3341" x2="-179.2351" y2="-174.3341">
	<stop  offset="0" style="stop-color:#060606"/>
	<stop  offset="0.618" style="stop-color:#000000"/>
	<stop  offset="0.6292" style="stop-color:#000000"/>
	<stop  offset="0.9831" style="stop-color:#000000"/>
</linearGradient>
<g>
	<path class="st0" d="M26.8,12.7C26.6,5.7,20.8,0,13.6,0C6.6,0,0.8,5.5,0.5,12.5c0,0.2,0,0.4,0,0.6c0,2.5,0.7,4.8,1.9,6.7l-2.4,7
		l7.3-2.3c1.9,1,4.1,1.6,6.4,1.6c7.3,0,13.1-5.8,13.1-13.1C26.8,12.9,26.8,12.8,26.8,12.7 M13.6,24c-2.2,0-4.3-0.7-6.1-1.8l-4.2,1.4
		l1.4-4.1c-1.3-1.8-2.1-4-2.1-6.4c0-0.4,0-0.7,0.1-1.1c0.5-5.6,5.3-9.9,11-9.9c5.8,0,10.6,4.5,11,10.1c0,0.3,0,0.6,0,0.9
		C24.7,19.1,19.7,24,13.6,24"/>
	<path class="st0" d="M19.7,15.7c-0.3-0.2-1.9-0.9-2.2-1c-0.3-0.1-0.5-0.2-0.7,0.2c-0.2,0.3-0.8,1-1,1.3c-0.2,0.2-0.4,0.2-0.7,0.1
		c-0.3-0.2-1.4-0.5-2.6-1.6c-1-0.8-1.6-1.9-1.8-2.2c-0.2-0.3,0-0.5,0.1-0.7c0.1-0.1,0.3-0.4,0.5-0.6c0-0.1,0.1-0.1,0.1-0.2
		c0.1-0.1,0.1-0.2,0.2-0.4c0.1-0.2,0.1-0.4,0-0.6c-0.1-0.2-0.7-1.7-1-2.4C10.3,7,10,7.1,9.8,7.1c-0.2,0-0.4,0-0.6,0
		C9,7.1,8.6,7.2,8.3,7.5c-0.3,0.3-1.1,1.1-1.1,2.7c0,0.4,0.1,0.7,0.2,1.1c0.3,1.1,1,2.1,1.2,2.2c0.2,0.2,2.2,3.5,5.5,4.8
		c3.3,1.3,3.3,0.8,3.9,0.8c0.6,0,1.9-0.8,2.2-1.5c0.3-0.7,0.3-1.4,0.2-1.5C20.2,15.9,20,15.8,19.7,15.7"/>
</g>
</svg>
