<?xml version="1.0" encoding="utf-8"?>
<!-- Generator: Adobe Illustrator 22.0.0, SVG Export Plug-In . SVG Version: 6.00 Build 0)  -->
<svg version="1.1" id="Layer_1" xmlns="http://www.w3.org/2000/svg" xmlns:xlink="http://www.w3.org/1999/xlink" x="0px" y="0px"
	 viewBox="0 0 34.9 28.1" style="enable-background:new 0 0 34.9 28.1;" xml:space="preserve">
<style type="text/css">
	.Drop_x0020_Shadow{fill:none;}
	.Thick_x0020_Blue_x0020_Neon{fill:none;stroke:#0073BC;stroke-width:10;stroke-linecap:round;stroke-linejoin:round;}
	.Illuminating_x0020_Aqua{fill:url(#SVGID_1_);stroke:#FFFFFF;stroke-width:0.25;stroke-miterlimit:1;}
	.Black_x0020_Highlight{fill:url(#SVGID_2_);stroke:#FFFFFF;stroke-width:0.3629;stroke-miterlimit:1;}
	.Bugaboo_GS{fill-rule:evenodd;clip-rule:evenodd;fill:#FFDD00;}
	.st0{fill:#2F1B5D;}
</style>
<linearGradient id="SVGID_1_" gradientUnits="userSpaceOnUse" x1="-150.7714" y1="-179.6823" x2="-150.7714" y2="-180.6823">
	<stop  offset="0" style="stop-color:#1D59F4"/>
	<stop  offset="0.618" style="stop-color:#2D65EE"/>
	<stop  offset="0.6292" style="stop-color:#3864F3"/>
	<stop  offset="0.9831" style="stop-color:#00DDFC"/>
</linearGradient>
<linearGradient id="SVGID_2_" gradientUnits="userSpaceOnUse" x1="-150.7714" y1="-179.6823" x2="-150.7714" y2="-180.6823">
	<stop  offset="0" style="stop-color:#060606"/>
	<stop  offset="0.618" style="stop-color:#000000"/>
	<stop  offset="0.6292" style="stop-color:#000000"/>
	<stop  offset="0.9831" style="stop-color:#000000"/>
</linearGradient>
<path class="st0" d="M34.2,4.4c-0.4-1.7-1.6-3.1-3.1-3.5C28.4,0,17.4,0,17.4,0S6.5,0,3.8,0.8C2.3,1.3,1.1,2.7,0.7,4.4
	C0,7.5,0,14,0,14s0,6.5,0.7,9.7c0.4,1.7,1.6,3.1,3.1,3.5c2.7,0.8,13.6,0.8,13.6,0.8s10.9,0,13.6-0.8c1.5-0.5,2.7-1.8,3.1-3.5
	c0.7-3.1,0.7-9.7,0.7-9.7S34.9,7.5,34.2,4.4 M13.9,20V8.1L23,14L13.9,20z"/>
</svg>
